<svg xmlns="http://www.w3.org/2000/svg" xmlns:xlink="http://www.w3.org/1999/xlink" width="500" zoomAndPan="magnify" viewBox="0 0 375 374.999991" height="500" preserveAspectRatio="xMidYMid meet" version="1.0"><defs><clipPath id="id1"><path d="M 101.195312 161.144531 L 187.445312 161.144531 L 187.445312 247.394531 L 101.195312 247.394531 Z M 101.195312 161.144531 " clip-rule="nonzero"/></clipPath><clipPath id="id2"><path d="M 200.992188 118.039062 L 287.242188 118.039062 L 287.242188 204.289062 L 200.992188 204.289062 Z M 200.992188 118.039062 " clip-rule="nonzero"/></clipPath></defs><g clip-path="url(#id1)"><path fill="rgb(100%, 100%, 100%)" d="M 187.445312 161.246094 L 144.011719 161.246094 C 142.605469 161.25 141.203125 161.324219 139.804688 161.46875 C 138.40625 161.609375 137.019531 161.820312 135.644531 162.097656 C 134.265625 162.375 132.90625 162.722656 131.5625 163.132812 C 130.21875 163.546875 128.898438 164.023438 127.601562 164.5625 C 126.304688 165.105469 125.035156 165.707031 123.800781 166.375 C 122.5625 167.039062 121.359375 167.765625 120.191406 168.550781 C 119.027344 169.332031 117.902344 170.171875 116.816406 171.066406 C 115.734375 171.960938 114.695312 172.90625 113.703125 173.902344 C 112.714844 174.898438 111.773438 175.941406 110.882812 177.027344 C 109.996094 178.117188 109.160156 179.246094 108.382812 180.417969 C 107.605469 181.585938 106.886719 182.792969 106.226562 184.03125 C 105.566406 185.273438 104.96875 186.542969 104.433594 187.84375 C 103.898438 189.140625 103.425781 190.464844 103.023438 191.808594 C 102.617188 193.15625 102.277344 194.519531 102.007812 195.894531 C 101.734375 197.273438 101.53125 198.664062 101.394531 200.0625 C 101.257812 201.460938 101.191406 202.863281 101.195312 204.269531 C 101.199219 205.679688 101.269531 207.085938 101.410156 208.488281 C 101.554688 209.890625 101.761719 211.285156 102.039062 212.667969 C 102.320312 214.050781 102.664062 215.414062 103.074219 216.765625 C 103.488281 218.113281 103.964844 219.4375 104.507812 220.742188 C 105.046875 222.042969 105.652344 223.316406 106.320312 224.558594 C 106.988281 225.800781 107.710938 227.007812 108.5 228.179688 C 109.285156 229.351562 110.125 230.480469 111.019531 231.570312 C 111.917969 232.660156 112.863281 233.699219 113.863281 234.695312 C 114.859375 235.691406 115.90625 236.636719 116.996094 237.53125 C 118.085938 238.425781 119.21875 239.261719 120.394531 240.046875 C 121.566406 240.828125 122.773438 241.550781 124.019531 242.214844 C 125.261719 242.878906 126.535156 243.480469 127.839844 244.019531 C 129.144531 244.558594 130.46875 245.03125 131.820312 245.441406 C 133.167969 245.847656 134.535156 246.191406 135.917969 246.464844 C 137.300781 246.742188 138.695312 246.945312 140.097656 247.085938 C 141.503906 247.222656 142.910156 247.292969 144.320312 247.292969 C 145.730469 247.292969 147.136719 247.222656 148.539062 247.085938 C 149.945312 246.945312 151.335938 246.742188 152.71875 246.464844 C 154.105469 246.191406 155.46875 245.847656 156.820312 245.441406 C 158.167969 245.03125 159.496094 244.558594 160.800781 244.019531 C 162.101562 243.480469 163.375 242.878906 164.621094 242.214844 C 165.863281 241.550781 167.074219 240.828125 168.246094 240.046875 C 169.421875 239.261719 170.550781 238.425781 171.644531 237.53125 C 172.734375 236.636719 173.78125 235.691406 174.777344 234.695312 C 175.777344 233.699219 176.722656 232.660156 177.621094 231.570312 C 178.515625 230.480469 179.355469 229.351562 180.140625 228.179688 C 180.925781 227.007812 181.652344 225.800781 182.320312 224.558594 C 182.988281 223.316406 183.589844 222.042969 184.132812 220.742188 C 184.675781 219.4375 185.152344 218.113281 185.5625 216.765625 C 185.976562 215.414062 186.320312 214.050781 186.597656 212.667969 C 186.875 211.285156 187.085938 209.890625 187.226562 208.488281 C 187.371094 207.085938 187.441406 205.679688 187.445312 204.269531 Z M 144.21875 237.410156 C 143.140625 237.40625 142.0625 237.351562 140.992188 237.242188 C 139.917969 237.132812 138.855469 236.972656 137.796875 236.761719 C 136.742188 236.546875 135.699219 236.285156 134.667969 235.96875 C 133.636719 235.65625 132.625 235.292969 131.628906 234.878906 C 130.632812 234.464844 129.660156 234 128.710938 233.492188 C 127.761719 232.984375 126.835938 232.429688 125.941406 231.828125 C 125.046875 231.230469 124.179688 230.589844 123.347656 229.90625 C 122.515625 229.21875 121.71875 228.496094 120.957031 227.734375 C 120.195312 226.972656 119.472656 226.175781 118.785156 225.34375 C 118.101562 224.511719 117.460938 223.644531 116.863281 222.75 C 116.261719 221.855469 115.707031 220.929688 115.199219 219.980469 C 114.691406 219.03125 114.226562 218.058594 113.8125 217.0625 C 113.398438 216.066406 113.035156 215.054688 112.722656 214.023438 C 112.40625 212.992188 112.144531 211.949219 111.929688 210.894531 C 111.71875 209.835938 111.558594 208.773438 111.449219 207.699219 C 111.339844 206.628906 111.285156 205.550781 111.28125 204.472656 L 111.28125 204.269531 C 111.285156 203.191406 111.339844 202.117188 111.449219 201.042969 C 111.558594 199.972656 111.71875 198.90625 111.929688 197.851562 C 112.144531 196.792969 112.40625 195.75 112.722656 194.71875 C 113.035156 193.6875 113.398438 192.675781 113.8125 191.679688 C 114.226562 190.683594 114.691406 189.710938 115.199219 188.761719 C 115.707031 187.8125 116.261719 186.890625 116.863281 185.992188 C 117.460938 185.097656 118.101562 184.234375 118.785156 183.402344 C 119.472656 182.566406 120.195312 181.769531 120.957031 181.007812 C 121.71875 180.246094 122.515625 179.523438 123.347656 178.839844 C 124.179688 178.15625 125.046875 177.511719 125.941406 176.914062 C 126.835938 176.3125 127.761719 175.757812 128.710938 175.25 C 129.660156 174.742188 130.632812 174.28125 131.628906 173.867188 C 132.625 173.453125 133.636719 173.085938 134.667969 172.773438 C 135.699219 172.457031 136.742188 172.195312 137.796875 171.980469 C 138.855469 171.769531 139.917969 171.609375 140.992188 171.5 C 142.0625 171.390625 143.140625 171.335938 144.21875 171.332031 L 177.152344 171.332031 L 177.152344 204.679688 C 177.140625 205.753906 177.074219 206.824219 176.957031 207.890625 C 176.839844 208.957031 176.671875 210.011719 176.453125 211.0625 C 176.234375 212.113281 175.964844 213.152344 175.644531 214.175781 C 175.324219 215.199219 174.957031 216.203125 174.539062 217.191406 C 174.121094 218.179688 173.65625 219.144531 173.144531 220.089844 C 172.628906 221.03125 172.074219 221.945312 171.472656 222.835938 C 170.875 223.722656 170.230469 224.582031 169.546875 225.410156 C 168.863281 226.234375 168.140625 227.027344 167.378906 227.78125 C 166.617188 228.539062 165.824219 229.253906 164.992188 229.933594 C 164.160156 230.613281 163.300781 231.25 162.40625 231.84375 C 161.515625 232.441406 160.59375 232.992188 159.648438 233.496094 C 158.703125 234.003906 157.734375 234.460938 156.746094 234.875 C 155.753906 235.285156 154.746094 235.648438 153.71875 235.960938 C 152.695312 236.277344 151.65625 236.539062 150.605469 236.75 C 149.554688 236.964844 148.492188 237.125 147.425781 237.234375 C 146.359375 237.347656 145.289062 237.402344 144.21875 237.410156 Z M 144.21875 237.410156 " fill-opacity="1" fill-rule="nonzero"/></g><g clip-path="url(#id2)"><path fill="rgb(100%, 100%, 100%)" d="M 200.992188 204.183594 L 244.425781 204.183594 C 245.832031 204.179688 247.234375 204.105469 248.632812 203.964844 C 250.03125 203.824219 251.417969 203.613281 252.796875 203.332031 C 254.171875 203.054688 255.53125 202.710938 256.875 202.296875 C 258.21875 201.886719 259.539062 201.410156 260.835938 200.867188 C 262.132812 200.328125 263.402344 199.722656 264.640625 199.058594 C 265.875 198.390625 267.078125 197.667969 268.246094 196.882812 C 269.410156 196.097656 270.535156 195.257812 271.621094 194.367188 C 272.703125 193.472656 273.742188 192.527344 274.734375 191.53125 C 275.726562 190.535156 276.664062 189.492188 277.554688 188.402344 C 278.441406 187.316406 279.277344 186.1875 280.054688 185.015625 C 280.832031 183.84375 281.550781 182.640625 282.210938 181.398438 C 282.871094 180.160156 283.46875 178.886719 284.003906 177.589844 C 284.539062 176.289062 285.011719 174.96875 285.414062 173.621094 C 285.820312 172.277344 286.160156 170.914062 286.433594 169.535156 C 286.703125 168.15625 286.90625 166.769531 287.042969 165.367188 C 287.179688 163.96875 287.246094 162.570312 287.242188 161.164062 C 287.238281 159.753906 287.167969 158.347656 287.027344 156.941406 C 286.882812 155.539062 286.675781 154.148438 286.398438 152.765625 C 286.117188 151.382812 285.773438 150.015625 285.363281 148.667969 C 284.949219 147.320312 284.472656 145.992188 283.929688 144.691406 C 283.390625 143.390625 282.785156 142.117188 282.117188 140.875 C 281.449219 139.632812 280.726562 138.425781 279.941406 137.253906 C 279.15625 136.082031 278.3125 134.953125 277.417969 133.863281 C 276.523438 132.773438 275.574219 131.730469 274.574219 130.734375 C 273.578125 129.738281 272.53125 128.792969 271.441406 127.902344 C 270.351562 127.007812 269.21875 126.167969 268.046875 125.386719 C 266.871094 124.605469 265.664062 123.882812 264.417969 123.21875 C 263.175781 122.554688 261.902344 121.953125 260.597656 121.414062 C 259.292969 120.875 257.96875 120.398438 256.617188 119.992188 C 255.269531 119.582031 253.902344 119.242188 252.519531 118.964844 C 251.136719 118.691406 249.742188 118.484375 248.339844 118.347656 C 246.933594 118.210938 245.527344 118.140625 244.117188 118.140625 C 242.707031 118.140625 241.300781 118.210938 239.898438 118.347656 C 238.492188 118.484375 237.101562 118.691406 235.71875 118.964844 C 234.335938 119.242188 232.96875 119.582031 231.617188 119.992188 C 230.269531 120.398438 228.941406 120.875 227.636719 121.414062 C 226.335938 121.953125 225.0625 122.554688 223.816406 123.21875 C 222.574219 123.882812 221.363281 124.605469 220.191406 125.386719 C 219.015625 126.167969 217.886719 127.007812 216.792969 127.902344 C 215.703125 128.792969 214.660156 129.738281 213.660156 130.734375 C 212.660156 131.730469 211.714844 132.773438 210.820312 133.863281 C 209.921875 134.953125 209.082031 136.082031 208.296875 137.253906 C 207.511719 138.425781 206.785156 139.632812 206.117188 140.875 C 205.453125 142.117188 204.847656 143.390625 204.304688 144.691406 C 203.761719 145.992188 203.285156 147.320312 202.875 148.667969 C 202.460938 150.015625 202.117188 151.382812 201.839844 152.765625 C 201.5625 154.148438 201.351562 155.539062 201.210938 156.941406 C 201.070312 158.347656 200.996094 159.753906 200.992188 161.164062 Z M 244.222656 128.023438 C 245.296875 128.023438 246.375 128.082031 247.445312 128.1875 C 248.519531 128.296875 249.582031 128.457031 250.640625 128.671875 C 251.695312 128.882812 252.738281 129.148438 253.769531 129.460938 C 254.800781 129.777344 255.816406 130.140625 256.808594 130.554688 C 257.804688 130.96875 258.777344 131.429688 259.726562 131.9375 C 260.675781 132.449219 261.601562 133.003906 262.496094 133.601562 C 263.390625 134.203125 264.257812 134.84375 265.089844 135.527344 C 265.921875 136.210938 266.71875 136.933594 267.480469 137.695312 C 268.242188 138.457031 268.96875 139.257812 269.652344 140.089844 C 270.335938 140.921875 270.976562 141.785156 271.578125 142.683594 C 272.175781 143.578125 272.730469 144.5 273.238281 145.449219 C 273.75 146.402344 274.210938 147.375 274.625 148.367188 C 275.039062 149.363281 275.402344 150.375 275.714844 151.40625 C 276.03125 152.4375 276.296875 153.480469 276.507812 154.539062 C 276.71875 155.59375 276.878906 156.660156 276.988281 157.730469 C 277.097656 158.804688 277.152344 159.878906 277.15625 160.957031 L 277.15625 161.164062 C 277.152344 162.242188 277.097656 163.316406 276.988281 164.386719 C 276.878906 165.460938 276.71875 166.523438 276.507812 167.582031 C 276.296875 168.636719 276.03125 169.683594 275.714844 170.714844 C 275.402344 171.742188 275.039062 172.757812 274.625 173.753906 C 274.210938 174.746094 273.75 175.71875 273.238281 176.667969 C 272.730469 177.621094 272.175781 178.542969 271.578125 179.4375 C 270.976562 180.335938 270.335938 181.199219 269.652344 182.03125 C 268.96875 182.863281 268.242188 183.660156 267.480469 184.421875 C 266.71875 185.1875 265.921875 185.910156 265.089844 186.59375 C 264.257812 187.277344 263.390625 187.917969 262.496094 188.519531 C 261.601562 189.117188 260.675781 189.671875 259.726562 190.179688 C 258.777344 190.691406 257.804688 191.152344 256.808594 191.566406 C 255.816406 191.980469 254.800781 192.34375 253.769531 192.660156 C 252.738281 192.972656 251.695312 193.238281 250.640625 193.449219 C 249.582031 193.664062 248.519531 193.824219 247.445312 193.929688 C 246.375 194.039062 245.296875 194.09375 244.222656 194.097656 L 211.285156 194.097656 L 211.285156 160.75 C 211.296875 159.679688 211.363281 158.609375 211.480469 157.542969 C 211.597656 156.476562 211.765625 155.417969 211.984375 154.367188 C 212.203125 153.316406 212.472656 152.28125 212.792969 151.257812 C 213.113281 150.234375 213.484375 149.226562 213.902344 148.238281 C 214.320312 147.25 214.785156 146.285156 215.296875 145.34375 C 215.808594 144.402344 216.363281 143.484375 216.964844 142.597656 C 217.566406 141.707031 218.207031 140.851562 218.890625 140.023438 C 219.574219 139.195312 220.296875 138.40625 221.058594 137.648438 C 221.820312 136.894531 222.617188 136.175781 223.445312 135.496094 C 224.277344 134.820312 225.136719 134.179688 226.03125 133.585938 C 226.921875 132.992188 227.84375 132.441406 228.789062 131.933594 C 229.734375 131.429688 230.703125 130.96875 231.691406 130.558594 C 232.683594 130.148438 233.691406 129.785156 234.71875 129.46875 C 235.742188 129.15625 236.78125 128.894531 237.832031 128.679688 C 238.886719 128.46875 239.945312 128.304688 241.011719 128.195312 C 242.078125 128.085938 243.148438 128.027344 244.222656 128.023438 Z M 244.222656 128.023438 " fill-opacity="1" fill-rule="nonzero"/></g></svg>